<?xml version="1.0" standalone="no"?>
<!DOCTYPE svg PUBLIC "-//W3C//DTD SVG 20010904//EN"
 "http://www.w3.org/TR/2001/REC-SVG-20010904/DTD/svg10.dtd">
<svg version="1.0" xmlns="http://www.w3.org/2000/svg"
 width="225.000000pt" height="225.000000pt" viewBox="0 0 225.000000 225.000000"
 preserveAspectRatio="xMidYMid meet">

<g transform="translate(0.000000,225.000000) scale(0.100000,-0.100000)"
fill="#000000" stroke="none">
<path d="M725 1518 c-4 -12 -85 -489 -85 -502 0 -3 98 -6 219 -6 l218 0 6 -54
c6 -64 33 -119 79 -163 48 -46 101 -65 183 -66 151 0 246 84 261 232 l7 61
-197 0 c-218 0 -217 0 -176 67 24 39 67 63 116 63 30 0 44 -7 74 -38 l36 -39
57 25 c31 13 57 29 57 35 0 5 -21 31 -48 57 -63 64 -138 88 -226 72 -33 -7
-61 -10 -62 -9 -3 3 -44 259 -44 272 0 3 -30 5 -66 3 l-66 -3 -44 -110 c-24
-60 -49 -121 -55 -135 -10 -22 -15 -13 -62 110 l-52 135 -63 3 c-44 2 -64 -1
-67 -10z m150 -360 l53 -133 -75 -3 c-42 -2 -77 -1 -80 1 -2 2 6 63 17 135 11
72 20 134 20 138 0 20 17 -17 65 -138z m244 68 c8 -58 7 -71 -9 -99 -10 -18
-22 -49 -25 -69 -7 -37 -8 -38 -51 -38 -24 0 -44 3 -44 7 0 13 112 274 116
270 2 -2 8 -34 13 -71z m231 -261 l0 -45 55 0 c30 0 55 -4 55 -9 0 -5 -11 -23
-25 -39 -63 -75 -185 -33 -214 73 -18 65 -18 65 59 65 l70 0 0 -45z"/>
</g>
</svg>
